# xmcd
#
# Track frame offsets: 
#        150
#        29040
#        61607
#        87670
#        101045
#        131195
#        147362
#
# Disc length: 2196 seconds
#
# Revision: 4
# Processed by: cddbd v1.5.2PL0 Copyright (c) Steve Scherf et al.
# Submitted via: ExactAudioCopyFreeDBPlugin 1.0
#
DISCID=67089207
DTITLE=Big Mama Thornton - Big Mama Thornton:  The Complete Vanguard R
DTITLE=ecordings
DYEAR=1975
DGENRE=Blues
TTITLE0=Little Red Rooster
TTITLE1=Ball and Chain
TTITLE2=Jail
TTITLE3=Hound Dog
TTITLE4=Rock Me Baby
TTITLE5=Sheriff O.E. and Me
TTITLE6=Oh Happy Day
EXTD=YEAR: 1975
EXTT0=
EXTT1=
EXTT2=
EXTT3=
EXTT4=
EXTT5=
EXTT6=
PLAYORDER=
